<svg xmlns="http://www.w3.org/2000/svg" height="40" viewBox="0 96 960 960" width="40"><path d="M353.972 762.666q-43.972 0-74.305-30.361-30.334-30.362-30.334-74.333 0-43.972 30.362-74.305 30.361-30.334 74.333-30.334 43.972 0 74.305 30.362 30.333 30.361 30.333 74.333 0 43.972-30.361 74.305-30.362 30.333-74.333 30.333ZM182.666 996q-33.724 0-58.862-25.138Q98.667 945.725 98.667 912V303.999q0-33.724 25.137-58.862Q148.942 220 182.666 220H218v-64h87.333v64h349.334v-64H742v64h35.334q33.724 0 58.862 25.137 25.137 25.138 25.137 58.862V912q0 33.725-25.137 58.862Q811.058 996 777.334 996H182.666Zm0-84h594.668V476H182.666v436Z"/></svg>