<svg xmlns="http://www.w3.org/2000/svg" height="40" viewBox="0 96 960 960" width="40"><path d="M479.871 660q-18.204 0-31.038-12.962Q436 634.076 436 615.871q0-18.204 12.962-31.038Q461.924 572 480.129 572q18.204 0 31.038 12.962Q524 597.924 524 616.129q0 18.204-12.962 31.038Q498.076 660 479.871 660Zm-160 0q-18.204 0-31.038-12.962Q276 634.076 276 615.871q0-18.204 12.962-31.038Q301.924 572 320.129 572q18.204 0 31.038 12.962Q364 597.924 364 616.129q0 18.204-12.962 31.038Q338.076 660 319.871 660Zm320 0q-18.204 0-31.038-12.962Q596 634.076 596 615.871q0-18.204 12.962-31.038Q621.924 572 640.129 572q18.204 0 31.038 12.962Q684 597.924 684 616.129q0 18.204-12.962 31.038Q658.076 660 639.871 660Zm-160 160q-18.204 0-31.038-12.962Q436 794.076 436 775.871q0-18.204 12.962-31.038Q461.924 732 480.129 732q18.204 0 31.038 12.962Q524 757.924 524 776.129q0 18.204-12.962 31.038Q498.076 820 479.871 820Zm-160 0q-18.204 0-31.038-12.962Q276 794.076 276 775.871q0-18.204 12.962-31.038Q301.924 732 320.129 732q18.204 0 31.038 12.962Q364 757.924 364 776.129q0 18.204-12.962 31.038Q338.076 820 319.871 820Zm320 0q-18.204 0-31.038-12.962Q596 794.076 596 775.871q0-18.204 12.962-31.038Q621.924 732 640.129 732q18.204 0 31.038 12.962Q684 757.924 684 776.129q0 18.204-12.962 31.038Q658.076 820 639.871 820ZM182.666 996q-33.724 0-58.862-25.138Q98.667 945.725 98.667 912V303.999q0-33.724 25.137-58.862Q148.942 220 182.666 220H218v-64h87.333v64h349.334v-64H742v64h35.334q33.724 0 58.862 25.137 25.137 25.138 25.137 58.862V912q0 33.725-25.137 58.862Q811.058 996 777.334 996H182.666Zm0-84h594.668V476H182.666v436Z"/></svg>